<?xml version="1.0" standalone="no"?>
<!DOCTYPE svg PUBLIC "-//W3C//DTD SVG 20010904//EN"
 "http://www.w3.org/TR/2001/REC-SVG-20010904/DTD/svg10.dtd">
<svg version="1.0" xmlns="http://www.w3.org/2000/svg"
 width="300.000000pt" height="300.000000pt" viewBox="0 0 300.000000 300.000000"
 preserveAspectRatio="xMidYMid meet">
<metadata>
Created by potrace 1.10, written by Peter Selinger 2001-2011
</metadata>
<g transform="translate(0.000000,300.000000) scale(0.100000,-0.100000)"
fill="#000000" stroke="none">
<path d="M1465 2121 c-12 -11 -193 -108 -410 -222 l-50 -26 -3 -203 -2 -204
37 -38 c36 -37 39 -38 110 -38 l73 0 0 46 0 45 -54 -2 c-86 -4 -86 -3 -86 187
0 99 4 164 10 164 8 0 176 88 278 146 l42 25 0 -193 0 -193 -97 0 -98 0 3 60
c3 47 8 64 25 77 34 27 40 22 34 -32 l-6 -50 42 0 42 0 0 115 c0 63 -2 115 -5
115 -3 0 -19 -9 -36 -19 -17 -11 -63 -36 -103 -56 l-71 -37 0 -129 0 -129 70
0 70 0 0 -187 0 -188 31 -17 c17 -10 34 -18 37 -18 4 0 6 92 4 205 l-3 205 30
0 31 0 0 -159 0 -158 40 -27 40 -26 0 485 c0 267 -4 485 -8 485 -4 0 -12 -4
-17 -9z m-14 -68 c3 -81 -2 -807 -6 -811 -3 -3 -5 59 -5 138 0 119 -3 146 -17
162 -22 24 -52 23 -80 -4 -22 -21 -23 -27 -23 -176 0 -86 -2 -153 -4 -151 -2
2 -6 72 -9 154 -3 83 -9 158 -12 168 -6 15 -29 22 -95 29 -25 3 -25 4 -27 105
l-1 102 63 36 c35 19 68 35 75 35 7 0 10 -22 9 -65 -1 -35 -6 -62 -11 -59 -4
3 -8 14 -8 24 0 10 -10 26 -21 34 -19 13 -26 13 -49 1 -34 -18 -40 -32 -40
-105 0 -77 19 -90 127 -90 65 0 80 3 100 22 22 21 23 26 23 203 0 168 -2 183
-20 200 -18 17 -22 16 -87 -17 -195 -98 -254 -132 -268 -151 -12 -17 -15 -55
-15 -175 0 -86 5 -162 10 -173 9 -16 60 -50 75 -49 32 1 45 -2 45 -10 0 -5
-22 -7 -52 -5 -40 4 -58 11 -75 29 -20 23 -21 36 -22 181 -2 206 0 217 52 243
23 12 112 59 197 106 85 47 158 85 163 85 4 1 7 -7 8 -16z"/>
<path d="M1550 1650 c0 -264 2 -480 4 -480 3 0 21 10 41 21 l36 22 -3 158 -3
159 138 0 137 0 0 129 0 129 -72 37 c-40 21 -87 46 -105 56 -19 11 -35 19 -36
19 -1 0 -2 -52 -2 -115 l0 -115 42 0 42 0 -6 51 -6 51 31 -16 c31 -16 32 -19
32 -79 l0 -62 -94 0 c-52 0 -98 -4 -102 -8 -16 -16 22 -27 97 -27 62 0 81 4
103 21 23 18 26 28 26 78 0 47 -4 61 -22 78 -46 41 -71 39 -91 -6 -11 -24 -12
-22 -15 28 -2 29 -1 55 2 58 2 3 36 -12 74 -32 l70 -37 -1 -101 -2 -102 -116
-3 c-153 -3 -148 3 -150 -175 0 -75 -5 -137 -10 -137 -5 0 -9 173 -9 410 0
258 4 410 10 410 5 0 26 -10 47 -21 21 -12 81 -44 133 -72 52 -27 125 -67 163
-89 l67 -39 0 -188 c0 -186 0 -188 -25 -211 -21 -19 -39 -24 -121 -29 -120 -8
-123 -11 -126 -135 l-2 -91 -5 110 c-4 61 -4 116 -2 123 2 8 29 12 91 12 169
0 180 13 180 214 0 83 -5 155 -11 169 -13 29 -71 65 -257 158 -80 40 -83 41
-102 24 -19 -17 -20 -31 -20 -207 0 -147 3 -189 13 -185 9 3 12 51 12 195 0
106 2 191 5 190 20 -10 234 -127 273 -149 l49 -27 3 -160 c3 -129 1 -163 -11
-173 -9 -7 -55 -11 -136 -10 l-123 2 0 -181 c0 -99 2 -180 5 -180 3 0 21 10
39 23 l33 23 -1 114 -2 115 102 -3 102 -3 36 35 36 35 -3 208 -3 208 -82 44
c-45 24 -146 77 -224 118 -79 41 -145 79 -149 84 -21 34 -24 -29 -24 -471z"/>
<path d="M1412 1115 c2 -31 10 -42 41 -62 l37 -23 0 34 c0 26 -7 39 -27 54
-54 37 -55 37 -51 -3z"/>
<path d="M1588 1127 c-33 -19 -38 -27 -38 -59 l0 -37 40 26 c33 22 40 32 40
60 0 18 -1 33 -2 33 -2 -1 -20 -11 -40 -23z"/>
</g>
</svg>
